<svg xmlns="http://www.w3.org/2000/svg" width="339.636" height="94.802" viewBox="0 0 339.636 94.802">
  <g id="blender-logo" transform="translate(-2198.965 -1711)">
    <rect id="Rectangle_22" data-name="Rectangle 22" width="276" height="46" rx="23" transform="translate(2262.601 1739.933)" fill="#f5f5f5"/>
    <path id="Path_39" data-name="Path 39" d="M51.858,321.88a25.273,25.273,0,0,0,1.085,5.932h0a31.293,31.293,0,0,0,6.765,11.711h0a34.918,34.918,0,0,0,11.835,8.5h0a37.994,37.994,0,0,0,15.54,3.232h0a38.139,38.139,0,0,0,15.539-3.283h0a35.188,35.188,0,0,0,11.829-8.534h0a31.543,31.543,0,0,0,6.758-11.734h0a29.638,29.638,0,0,0,1.272-6.549h0a29.84,29.84,0,0,0-.209-6.5h0a30.3,30.3,0,0,0-4.312-11.8,33.09,33.09,0,0,0-7.87-8.675h0l0,0h0L78.255,269.714h0l-.081-.068h0a7.09,7.09,0,0,0-7.9.012h0c-2.327,1.627-2.588,4.312-.524,6.011h0l-.007,0h0l13.28,10.8-40.482.043h-.056c-3.344,0-6.558,2.2-7.2,4.974h0c-.65,2.827,1.623,5.17,5.1,5.183h0l0,.014h0l20.518-.04-36.615,28.1h0c-.045.036-.095.07-.14.105h0c-3.45,2.644-4.568,7.044-2.395,9.828h0c2.21,2.831,6.9,2.833,10.393.012h0l19.982-16.35A31.5,31.5,0,0,0,51.858,321.88Z" transform="translate(2184.363 1448.55)" fill="#f5f5f5" stroke="#f5f5f5" stroke-linejoin="round" stroke-width="12"/>
    <g id="Logo_Blender" transform="translate(2205 1717)">
      <g id="Group_56" data-name="Group 56" transform="translate(53.12 34.678)">
        <path id="Path_30" data-name="Path 30" d="M112.858,340.517A12.035,12.035,0,0,1,117.222,332h0a14.554,14.554,0,0,1,9.4-3.36h0a14.554,14.554,0,0,1,9.4,3.36h0a12.046,12.046,0,0,1,4.366,8.516,11.818,11.818,0,0,1-3.675,9.144h0a14.4,14.4,0,0,1-10.084,3.983h0a14.417,14.417,0,0,1-10.091-3.983h0A11.814,11.814,0,0,1,112.858,340.517Z" transform="translate(-112.84 -328.641)" fill="#005385"/>
      </g>
      <g id="Group_57" data-name="Group 57" transform="translate(0 0)">
        <path id="Path_31" data-name="Path 31" d="M51.858,321.88a25.273,25.273,0,0,0,1.085,5.932h0a31.293,31.293,0,0,0,6.765,11.711h0a34.918,34.918,0,0,0,11.835,8.5h0a37.994,37.994,0,0,0,15.54,3.232h0a38.139,38.139,0,0,0,15.539-3.283h0a35.188,35.188,0,0,0,11.829-8.534h0a31.543,31.543,0,0,0,6.758-11.734h0a29.638,29.638,0,0,0,1.272-6.549h0a29.84,29.84,0,0,0-.209-6.5h0a30.3,30.3,0,0,0-4.312-11.8,33.09,33.09,0,0,0-7.87-8.675h0l0,0h0L78.255,269.714h0l-.081-.068h0a7.09,7.09,0,0,0-7.9.012h0c-2.327,1.627-2.588,4.312-.524,6.011h0l-.007,0h0l13.28,10.8-40.482.043h-.056c-3.344,0-6.558,2.2-7.2,4.974h0c-.65,2.827,1.623,5.17,5.1,5.183h0l0,.014h0l20.518-.04-36.615,28.1h0c-.045.036-.095.07-.14.105h0c-3.45,2.644-4.568,7.044-2.395,9.828h0c2.21,2.831,6.9,2.833,10.393.012h0l19.982-16.35A31.5,31.5,0,0,0,51.858,321.88Zm51.345,7.389a22.461,22.461,0,0,1-16.118,6.587h0a22.389,22.389,0,0,1-16.125-6.536h0a19.2,19.2,0,0,1-4.4-6.89h0a17.92,17.92,0,0,1-1.011-7.695h0a18.2,18.2,0,0,1,2.208-7.249h0a20.062,20.062,0,0,1,4.9-5.824h0a22.811,22.811,0,0,1,14.428-5.035h0a22.782,22.782,0,0,1,14.428,4.994h0a19.911,19.911,0,0,1,4.895,5.8h0a18.2,18.2,0,0,1,2.212,7.242h0a17.937,17.937,0,0,1-1.013,7.7h0A19.254,19.254,0,0,1,103.2,329.269Z" transform="translate(-20.637 -268.45)" fill="#ff7021"/>
      </g>
      <g id="Group_58" data-name="Group 58" transform="translate(261.26 35.066)">
        <path id="Path_32" data-name="Path 32" d="M484.143,340.753c.311-3.432,2.964-5.608,7.012-5.608s6.7,2.176,7.017,5.608Zm13.613,8.466c-1.039,2.545-3.481,4.051-6.805,4.051-4.159,0-6.961-2.6-7.064-6.7h23.9v-1.206c0-10.273-6.027-16.048-16.834-16.048-10.494,0-16.834,5.829-16.834,14.971,0,9.193,6.441,15.01,16.834,15.01,6.231,0,11.072-2.133,14.059-5.9Z" transform="translate(-474.117 -329.316)" fill="#005385"/>
      </g>
      <g id="Group_59" data-name="Group 59" transform="translate(155.193 35.083)">
        <path id="Path_33" data-name="Path 33" d="M300.035,340.781c.317-3.432,2.964-5.606,7.017-5.606s6.7,2.174,7.013,5.606Zm13.613,8.469c-1.038,2.545-3.481,4.051-6.805,4.051-4.157,0-6.963-2.6-7.067-6.7h23.9v-1.2c0-10.273-6.029-16.05-16.831-16.05-10.5,0-16.831,5.831-16.831,14.97,0,9.2,6.436,15.013,16.831,15.013,6.231,0,11.072-2.133,14.059-5.9Z" transform="translate(-290.012 -329.344)" fill="#005385"/>
      </g>
      <g id="Group_60" data-name="Group 60" transform="translate(144.426 28.858)">
        <path id="Path_34" data-name="Path 34" d="M271.324,318.539h8.624v35.267h-8.624Z" transform="translate(-271.324 -318.539)" fill="#005385"/>
      </g>
      <g id="Group_61" data-name="Group 61" transform="translate(190.998 35.398)">
        <path id="Path_35" data-name="Path 35" d="M352.16,332.717h8.669v2.1a14.575,14.575,0,0,1,10.911-4.928c4.791,0,8.417,1.654,10.289,4.471,1.56,2.329,1.663,5.138,1.663,8.833v15.423h-8.683V345.064c0-5.617-1.13-8.217-6.065-8.217-4.991,0-8.115,2.971-8.115,7.957v13.814H352.16Z" transform="translate(-352.16 -329.891)" fill="#005385"/>
      </g>
      <g id="Group_62" data-name="Group 62" transform="translate(224.672 26.618)">
        <path id="Path_36" data-name="Path 36" d="M436.382,338.5c0,4.83-3.225,8-8.21,8s-8.214-3.061-8.214-7.94c0-4.948,3.173-8.009,8.214-8.009C433.157,330.55,436.382,333.66,436.382,338.5Zm0-11.068c-2.185-2.349-5.356-3.639-9.769-3.639-9.5,0-16,5.87-16,14.658,0,8.615,6.448,14.642,15.846,14.642,4.315,0,7.483-1.087,9.927-3.533v2.6h8.675V314.652l-8.675,2.239Z" transform="translate(-410.609 -314.652)" fill="#005385"/>
      </g>
      <g id="Group_63" data-name="Group 63" transform="translate(107.838 26.618)">
        <path id="Path_37" data-name="Path 37" d="M224.7,330.55c5.039,0,8.207,3.061,8.207,8.009,0,4.879-3.221,7.94-8.207,7.94s-8.21-3.166-8.21-8S219.717,330.55,224.7,330.55Zm-8.21-13.658-8.678-2.239v37.507h8.678v-2.6c2.442,2.446,5.61,3.533,9.923,3.533,9.4,0,15.845-6.027,15.845-14.642,0-8.788-6.492-14.658-16-14.658-4.418,0-7.584,1.29-9.767,3.639Z" transform="translate(-207.816 -314.652)" fill="#005385"/>
      </g>
      <g id="Group_64" data-name="Group 64" transform="translate(297.069 35.141)">
        <path id="Path_38" data-name="Path 38" d="M536.273,358.429v-25.9h8.676v1.6c2.6-3.126,5.347-4.683,8.466-4.683.626,0,1.4.1,2.442.205v7.381a22.208,22.208,0,0,0-2.753-.108c-5.041,0-8.156,3.326-8.156,8.986v12.52Z" transform="translate(-536.273 -329.445)" fill="#005385"/>
      </g>
    </g>
  </g>
</svg>
