<svg xmlns="http://www.w3.org/2000/svg" width="239.965" height="84.279" viewBox="0 0 239.965 84.279">
  <g id="jumbo-logos" transform="translate(-831 -228.214)">
    <g id="Group_89" data-name="Group 89" transform="translate(-3 376)">
      <g id="Group_87" data-name="Group 87" transform="translate(886.932 -113.232)">
        <path id="Path_30" data-name="Path 30" d="M112.858,340.475a11.992,11.992,0,0,1,4.348-8.486h0a14.5,14.5,0,0,1,9.363-3.348h0a14.5,14.5,0,0,1,9.363,3.348h0a12,12,0,0,1,4.35,8.486,11.776,11.776,0,0,1-3.662,9.111h0a14.349,14.349,0,0,1-10.049,3.969h0a14.366,14.366,0,0,1-10.056-3.969h0A11.772,11.772,0,0,1,112.858,340.475Z" transform="translate(-112.84 -328.641)" fill="#f5f5f5"/>
      </g>
      <g id="Group_88" data-name="Group 88" transform="translate(834 -147.786)">
        <path id="Path_31" data-name="Path 31" d="M51.747,321.691a25.184,25.184,0,0,0,1.081,5.911h0a31.183,31.183,0,0,0,6.741,11.67h0a34.794,34.794,0,0,0,11.793,8.465h0a37.859,37.859,0,0,0,15.485,3.221h0a38,38,0,0,0,15.484-3.272h0a35.065,35.065,0,0,0,11.787-8.5h0a31.432,31.432,0,0,0,6.734-11.692h0a29.532,29.532,0,0,0,1.267-6.526h0a29.734,29.734,0,0,0-.208-6.481h0a30.2,30.2,0,0,0-4.3-11.762,32.973,32.973,0,0,0-7.843-8.645h0l0,0h0L78.052,269.71h0l-.08-.068h0a7.065,7.065,0,0,0-7.874.011h0c-2.319,1.621-2.579,4.3-.522,5.989h0l-.007,0h0L82.8,286.412l-40.338.042h-.056c-3.332,0-6.535,2.194-7.172,4.956h0c-.648,2.817,1.617,5.151,5.082,5.164h0l0,.014h0l20.445-.04-36.486,28h0c-.045.036-.094.069-.139.105h0c-3.438,2.635-4.552,7.019-2.386,9.793h0c2.2,2.821,6.878,2.823,10.356.011h0l19.911-16.292A31.392,31.392,0,0,0,51.747,321.691Zm51.163,7.363a22.381,22.381,0,0,1-16.061,6.564h0A22.31,22.31,0,0,1,70.781,329.1h0a19.136,19.136,0,0,1-4.388-6.866h0a17.857,17.857,0,0,1-1.007-7.667h0a18.136,18.136,0,0,1,2.2-7.223h0a19.99,19.99,0,0,1,4.882-5.8h0a22.73,22.73,0,0,1,14.377-5.017h0a22.7,22.7,0,0,1,14.377,4.976h0a19.841,19.841,0,0,1,4.877,5.784h0a18.138,18.138,0,0,1,2.2,7.216h0a17.873,17.873,0,0,1-1.009,7.669h0A19.186,19.186,0,0,1,102.91,329.054Z" transform="translate(-20.637 -268.45)" fill="#f5f5f5"/>
      </g>
    </g>
    <g id="Adobe_Photoshop_CC_icon" transform="translate(984.598 228.284)">
      <path id="Path_44" data-name="Path 44" d="M0,0V84.209H86.368V0ZM3.6,3.6h79.17V80.61H3.6ZM20.872,19.721c0-.252.5-.432.792-.432,2.3-.108,5.722-.18,9.285-.18,9.968,0,13.855,5.47,13.855,12.487,0,9.141-6.622,13.063-14.754,13.063-1.367,0-1.835-.072-2.807-.072V58.406c0,.288-.108.432-.432.432H21.3c-.288,0-.432-.108-.432-.432V19.721ZM27.278,38.83c.828.072,1.475.072,2.915.072,4.21,0,8.169-1.475,8.169-7.2,0-4.57-2.843-6.873-7.629-6.873-1.439,0-2.807.072-3.455.108V38.83Zm30.948-4.282c-2.843,0-3.815,1.439-3.815,2.627,0,1.3.648,2.2,4.462,4.174,5.65,2.735,7.413,5.362,7.413,9.213,0,5.758-4.39,8.853-10.328,8.853a15.655,15.655,0,0,1-7.377-1.547c-.252-.108-.288-.288-.288-.576V52c0-.36.18-.468.432-.288a13.358,13.358,0,0,0,7.233,2.123c2.843,0,4.03-1.188,4.03-2.807,0-1.3-.828-2.447-4.462-4.318-5.11-2.447-7.233-4.93-7.233-9.069,0-4.642,3.635-8.493,9.932-8.493a16.546,16.546,0,0,1,6.442,1.008.8.8,0,0,1,.36.72v4.93c0,.288-.18.468-.54.36a12.154,12.154,0,0,0-6.262-1.619Z" fill="#f5f5f5"/>
    </g>
  </g>
</svg>
